{
    "asset" : {
        "generator" : "Khronos glTF Blender I/O v1.2.75",
        "version" : "2.0"
    },
    "scene" : 0,
    "scenes" : [
        {
            "name" : "Disorient___WebGL",
            "nodes" : [
                0,
                1,
                2,
                3,
                4
            ]
        }
    ],
    "nodes" : [
        {
            "mesh" : 0,
            "name" : "B1"
        },
        {
            "name" : "PointLight",
            "rotation" : [
                0.7071068286895752,
                0,
                0,
                0.7071068286895752
            ]
        },
        {
            "name" : "RCamera",
            "rotation" : [
                0.28214389085769653,
                0.6241648197174072,
                -0.6811543703079224,
                0.25853797793388367
            ],
            "translation" : [
                0.25690001249313354,
                -0.03269999846816063,
                -0.25690001249313354
            ]
        },
        {
            "mesh" : 1,
            "name" : "B"
        },
        {
            "mesh" : 2,
            "name" : "S"
        }
    ],
    "animations" : [
        {
            "channels" : [
                {
                    "sampler" : 0,
                    "target" : {
                        "node" : 0,
                        "path" : "scale"
                    }
                },
                {
                    "sampler" : 1,
                    "target" : {
                        "node" : 0,
                        "path" : "translation"
                    }
                },
                {
                    "sampler" : 2,
                    "target" : {
                        "node" : 0,
                        "path" : "rotation"
                    }
                }
            ],
            "name" : "B1Action",
            "samplers" : [
                {
                    "input" : 12,
                    "interpolation" : "LINEAR",
                    "output" : 13
                },
                {
                    "input" : 12,
                    "interpolation" : "LINEAR",
                    "output" : 14
                },
                {
                    "input" : 12,
                    "interpolation" : "LINEAR",
                    "output" : 15
                }
            ]
        },
        {
            "channels" : [
                {
                    "sampler" : 0,
                    "target" : {
                        "node" : 3,
                        "path" : "scale"
                    }
                },
                {
                    "sampler" : 1,
                    "target" : {
                        "node" : 3,
                        "path" : "translation"
                    }
                },
                {
                    "sampler" : 2,
                    "target" : {
                        "node" : 3,
                        "path" : "rotation"
                    }
                }
            ],
            "name" : "BAction",
            "samplers" : [
                {
                    "input" : 12,
                    "interpolation" : "LINEAR",
                    "output" : 16
                },
                {
                    "input" : 12,
                    "interpolation" : "LINEAR",
                    "output" : 17
                },
                {
                    "input" : 12,
                    "interpolation" : "LINEAR",
                    "output" : 18
                }
            ]
        },
        {
            "channels" : [
                {
                    "sampler" : 0,
                    "target" : {
                        "node" : 4,
                        "path" : "scale"
                    }
                },
                {
                    "sampler" : 1,
                    "target" : {
                        "node" : 4,
                        "path" : "translation"
                    }
                },
                {
                    "sampler" : 2,
                    "target" : {
                        "node" : 4,
                        "path" : "rotation"
                    }
                }
            ],
            "name" : "SAction",
            "samplers" : [
                {
                    "input" : 12,
                    "interpolation" : "LINEAR",
                    "output" : 19
                },
                {
                    "input" : 12,
                    "interpolation" : "LINEAR",
                    "output" : 20
                },
                {
                    "input" : 12,
                    "interpolation" : "LINEAR",
                    "output" : 21
                }
            ]
        }
    ],
    "materials" : [
        {
            "doubleSided" : true,
            "name" : "Physical2",
            "pbrMetallicRoughness" : {}
        },
        {
            "doubleSided" : true,
            "name" : "Physical",
            "pbrMetallicRoughness" : {}
        },
        {
            "doubleSided" : true,
            "name" : "Physical1",
            "pbrMetallicRoughness" : {}
        }
    ],
    "meshes" : [
        {
            "name" : "B1",
            "primitives" : [
                {
                    "attributes" : {
                        "POSITION" : 0,
                        "NORMAL" : 1,
                        "TEXCOORD_0" : 2
                    },
                    "indices" : 3,
                    "material" : 0
                }
            ]
        },
        {
            "name" : "B",
            "primitives" : [
                {
                    "attributes" : {
                        "POSITION" : 4,
                        "NORMAL" : 5,
                        "TEXCOORD_0" : 6
                    },
                    "indices" : 7,
                    "material" : 1
                }
            ]
        },
        {
            "name" : "S",
            "primitives" : [
                {
                    "attributes" : {
                        "POSITION" : 8,
                        "NORMAL" : 9,
                        "TEXCOORD_0" : 10
                    },
                    "indices" : 11,
                    "material" : 2
                }
            ]
        }
    ],
    "accessors" : [
        {
            "bufferView" : 0,
            "componentType" : 5126,
            "count" : 3072,
            "max" : [
                2,
                2,
                2
            ],
            "min" : [
                -2,
                -2,
                -2
            ],
            "type" : "VEC3"
        },
        {
            "bufferView" : 1,
            "componentType" : 5126,
            "count" : 3072,
            "type" : "VEC3"
        },
        {
            "bufferView" : 2,
            "componentType" : 5126,
            "count" : 3072,
            "type" : "VEC2"
        },
        {
            "bufferView" : 3,
            "componentType" : 5123,
            "count" : 9216,
            "type" : "SCALAR"
        },
        {
            "bufferView" : 4,
            "componentType" : 5126,
            "count" : 12320,
            "max" : [
                1.5,
                1.5,
                1.5
            ],
            "min" : [
                -1.5,
                -1.5,
                -1.5
            ],
            "type" : "VEC3"
        },
        {
            "bufferView" : 5,
            "componentType" : 5126,
            "count" : 12320,
            "type" : "VEC3"
        },
        {
            "bufferView" : 6,
            "componentType" : 5126,
            "count" : 12320,
            "type" : "VEC2"
        },
        {
            "bufferView" : 7,
            "componentType" : 5123,
            "count" : 27648,
            "type" : "SCALAR"
        },
        {
            "bufferView" : 8,
            "componentType" : 5126,
            "count" : 3072,
            "max" : [
                0.5,
                0.5,
                0.5
            ],
            "min" : [
                -0.5,
                -0.5,
                -0.5
            ],
            "type" : "VEC3"
        },
        {
            "bufferView" : 9,
            "componentType" : 5126,
            "count" : 3072,
            "type" : "VEC3"
        },
        {
            "bufferView" : 10,
            "componentType" : 5126,
            "count" : 3072,
            "type" : "VEC2"
        },
        {
            "bufferView" : 11,
            "componentType" : 5123,
            "count" : 9216,
            "type" : "SCALAR"
        },
        {
            "bufferView" : 12,
            "componentType" : 5126,
            "count" : 201,
            "max" : [
                6.896551724137931
            ],
            "min" : [
                0
            ],
            "type" : "SCALAR"
        },
        {
            "bufferView" : 13,
            "componentType" : 5126,
            "count" : 201,
            "type" : "VEC3"
        },
        {
            "bufferView" : 14,
            "componentType" : 5126,
            "count" : 201,
            "type" : "VEC3"
        },
        {
            "bufferView" : 15,
            "componentType" : 5126,
            "count" : 201,
            "type" : "VEC4"
        },
        {
            "bufferView" : 16,
            "componentType" : 5126,
            "count" : 201,
            "type" : "VEC3"
        },
        {
            "bufferView" : 17,
            "componentType" : 5126,
            "count" : 201,
            "type" : "VEC3"
        },
        {
            "bufferView" : 18,
            "componentType" : 5126,
            "count" : 201,
            "type" : "VEC4"
        },
        {
            "bufferView" : 19,
            "componentType" : 5126,
            "count" : 201,
            "type" : "VEC3"
        },
        {
            "bufferView" : 20,
            "componentType" : 5126,
            "count" : 201,
            "type" : "VEC3"
        },
        {
            "bufferView" : 21,
            "componentType" : 5126,
            "count" : 201,
            "type" : "VEC4"
        }
    ],
    "bufferViews" : [
        {
            "buffer" : 0,
            "byteLength" : 36864,
            "byteOffset" : 0
        },
        {
            "buffer" : 0,
            "byteLength" : 36864,
            "byteOffset" : 36864
        },
        {
            "buffer" : 0,
            "byteLength" : 24576,
            "byteOffset" : 73728
        },
        {
            "buffer" : 0,
            "byteLength" : 18432,
            "byteOffset" : 98304
        },
        {
            "buffer" : 0,
            "byteLength" : 147840,
            "byteOffset" : 116736
        },
        {
            "buffer" : 0,
            "byteLength" : 147840,
            "byteOffset" : 264576
        },
        {
            "buffer" : 0,
            "byteLength" : 98560,
            "byteOffset" : 412416
        },
        {
            "buffer" : 0,
            "byteLength" : 55296,
            "byteOffset" : 510976
        },
        {
            "buffer" : 0,
            "byteLength" : 36864,
            "byteOffset" : 566272
        },
        {
            "buffer" : 0,
            "byteLength" : 36864,
            "byteOffset" : 603136
        },
        {
            "buffer" : 0,
            "byteLength" : 24576,
            "byteOffset" : 640000
        },
        {
            "buffer" : 0,
            "byteLength" : 18432,
            "byteOffset" : 664576
        },
        {
            "buffer" : 0,
            "byteLength" : 804,
            "byteOffset" : 683008
        },
        {
            "buffer" : 0,
            "byteLength" : 2412,
            "byteOffset" : 683812
        },
        {
            "buffer" : 0,
            "byteLength" : 2412,
            "byteOffset" : 686224
        },
        {
            "buffer" : 0,
            "byteLength" : 3216,
            "byteOffset" : 688636
        },
        {
            "buffer" : 0,
            "byteLength" : 2412,
            "byteOffset" : 691852
        },
        {
            "buffer" : 0,
            "byteLength" : 2412,
            "byteOffset" : 694264
        },
        {
            "buffer" : 0,
            "byteLength" : 3216,
            "byteOffset" : 696676
        },
        {
            "buffer" : 0,
            "byteLength" : 2412,
            "byteOffset" : 699892
        },
        {
            "buffer" : 0,
            "byteLength" : 2412,
            "byteOffset" : 702304
        },
        {
            "buffer" : 0,
            "byteLength" : 3216,
            "byteOffset" : 704716
        }
    ],
    "buffers" : [
        {
            "byteLength" : 707932,
            "uri" : "scene.bin"
        }
    ]
}
